<svg xmlns="http://www.w3.org/2000/svg" width="139" height="53" fill="none"><path fill="#fff" d="M120.59 2.835V2.82h-4.914l.933-2.82h-16.376l-2.218 2.82H16.382L.34 51.182h112.492l9.517-28.914h9.578L138.34 2.84h-17.75v-.005Z"/><path fill="#000" d="M116.599 5.789v-.015h-4.849l.933-2.82h-11.142l-2.218 2.82h-80.97L4.27 48.228h106.57l9.532-28.913h9.577l4.464-13.521h-17.814v-.005Z"/><path fill="#fff" d="M28.693 34.136h-7.179L19.96 31.59l-4.58 13.68H8.2L20.32 8.732h4.794l1.555 2.545 3.239-2.545h7.178l3.11 5.085-5.03 15.244-6.47 5.084-.013-.014h.009v.005Zm-7.049-7.615h7.179l3.355-10.16h-7.179l-3.355 10.16Zm35.68-10.16h-9.578l-5.87 17.79h-7.179l8.385-25.42h7.18l-.846 2.546 3.24-2.545h7.178l-2.515 7.615v.014h.005Zm6.106 17.775h-7.178l5.87-17.79H58.53l2.515-7.614H71.83l-8.386 25.404h-.013Zm15.564 0 5.87-17.79h-7.179l-5.87 17.79h-7.178l8.385-25.404H80.2l-.844 2.545 3.239-2.545h7.179l3.109 5.085-6.715 20.319h-7.179.005Zm29.759-28.224-.933 2.82h4.794l-1.764 5.085h-4.793l-4.2 12.704h4.794l-2.515 7.615h-8.385l-1.077-7.615 4.2-12.704H94.08l1.75-5.085h4.793l2.218-2.82h5.921-.014.005Zm19.221 10.449h-9.578l-5.87 17.79h-7.178l8.385-25.404h7.178l-.844 2.544 3.239-2.544h7.179l-2.516 7.614h.005Z"/><path fill="url(#a)" d="m20.516 38.758-2.162 6.517h64.143l2.177-6.517H20.516Z"/><path fill="url(#b)" d="m103.719 38.758-2.162 6.517h7.698l2.176-6.517h-7.712Z"/><path fill="url(#c)" d="m87.575 38.758-2.163 6.517h13.285l2.177-6.517h-13.3Z"/><defs><linearGradient id="a" x1="41.472" x2="82.435" y1="35.868" y2="58.165" gradientUnits="userSpaceOnUse"><stop stop-color="#01AEF0"/><stop offset=".46" stop-color="#D1157A"/><stop offset="1" stop-color="#F8EC1D"/></linearGradient><linearGradient id="b" x1="83.789" x2="104.537" y1="28.116" y2="39.406" gradientUnits="userSpaceOnUse"><stop stop-color="#01AEF0"/><stop offset=".46" stop-color="#D1157A"/><stop offset="1" stop-color="#F8EC1D"/></linearGradient><linearGradient id="c" x1="69.575" x2="96.113" y1="27.584" y2="42.029" gradientUnits="userSpaceOnUse"><stop stop-color="#01AEF0"/><stop offset=".46" stop-color="#D1157A"/><stop offset="1" stop-color="#F8EC1D"/></linearGradient></defs></svg>